<?xml version="1.0" standalone="no"?>
<!DOCTYPE svg PUBLIC "-//W3C//DTD SVG 20010904//EN"
 "http://www.w3.org/TR/2001/REC-SVG-20010904/DTD/svg10.dtd">
<svg version="1.0" xmlns="http://www.w3.org/2000/svg"
 width="700.000000pt" height="700.000000pt" viewBox="0 0 700.000000 700.000000"
 preserveAspectRatio="xMidYMid meet">
<metadata>
Created by potrace 1.14, written by Peter Selinger 2001-2017
</metadata>
<g transform="translate(0.000000,700.000000) scale(0.100000,-0.100000)"
fill="#000000" stroke="none">
<path d="M3278 6995 c-1 -1 -42 -5 -89 -9 -47 -4 -95 -8 -106 -10 -11 -3 -44
-7 -74 -11 -65 -8 -88 -11 -159 -25 -30 -6 -66 -14 -80 -16 -86 -17 -271 -67
-365 -99 -833 -281 -1510 -834 -1945 -1590 -47 -81 -170 -327 -170 -339 0 -3
-11 -29 -24 -58 -43 -96 -112 -298 -142 -413 -4 -16 -8 -34 -10 -40 -5 -16
-25 -98 -30 -120 -39 -194 -47 -242 -60 -350 -26 -230 -26 -667 1 -826 2 -13
6 -46 9 -74 9 -78 22 -152 51 -285 21 -96 91 -339 114 -395 5 -11 25 -65 46
-120 64 -170 213 -461 314 -615 214 -324 467 -601 775 -848 89 -72 367 -262
382 -262 4 0 15 -6 23 -14 29 -26 335 -175 471 -229 248 -99 545 -178 799
-213 25 -3 57 -8 71 -10 162 -25 683 -25 841 1 13 2 47 7 74 10 72 10 86 12
120 19 17 3 44 8 60 11 192 37 425 105 630 187 116 46 353 161 439 213 32 19
62 35 67 35 5 0 9 5 9 10 0 6 5 10 10 10 15 0 220 141 330 227 152 118 324
280 450 422 36 41 70 79 76 85 6 6 48 61 94 121 150 197 277 405 383 628 26
53 47 99 47 102 0 2 11 28 24 57 57 127 151 421 182 573 17 81 54 301 59 350
4 33 9 71 11 85 9 47 11 525 4 605 -16 169 -22 220 -25 225 -2 3 -6 30 -10 60
-9 75 -69 337 -99 435 -202 665 -576 1236 -1103 1684 -60 51 -170 133 -333
248 -145 103 -497 281 -698 354 -226 81 -491 151 -662 174 -19 3 -46 7 -60 10
-13 2 -52 7 -86 11 -33 3 -74 8 -90 10 -33 5 -540 14 -546 9z"/>
</g>
</svg>
