<?xml version="1.0" encoding="UTF-8" standalone="no"?>
<svg
   version="1.1"
   x="0px"
   y="0px"
   width="24px"
   height="24px"
   viewBox="0 0 24 24"
   id="svg6"
   sodipodi:docname="logo.svg"
   inkscape:version="1.1 (c68e22c387, 2021-05-23)"
   xmlns:inkscape="http://www.inkscape.org/namespaces/inkscape"
   xmlns:sodipodi="http://sodipodi.sourceforge.net/DTD/sodipodi-0.dtd"
   xmlns="http://www.w3.org/2000/svg"
   xmlns:svg="http://www.w3.org/2000/svg">
  <defs
     id="defs10" />
  <sodipodi:namedview
     id="namedview8"
     pagecolor="#ffffff"
     bordercolor="#cccccc"
     borderopacity="1"
     inkscape:pageshadow="0"
     inkscape:pageopacity="1"
     inkscape:pagecheckerboard="0"
     showgrid="false"
     inkscape:zoom="6.0240202"
     inkscape:cx="18.841238"
     inkscape:cy="16.185205"
     inkscape:window-width="1366"
     inkscape:window-height="705"
     inkscape:window-x="-8"
     inkscape:window-y="-8"
     inkscape:window-maximized="1"
     inkscape:current-layer="svg6" />
  <style
     type="text/css"
     id="style2">
	.st0{fill:#515151;}
</style>
  <g
     id="g122"
     transform="matrix(0.05537173,0,0,0.05537173,1.2755911,1.2755756)">
    <g
       id="g65">
	<g
   id="g63">
		<g
   id="g61">
			<path
   d="m 305.96,193.68 c 12.269,-12.141 23.233,-24.17 32.628,-35.791 0.873,0.107 1.703,0.159 2.514,0.159 12.131,0 22,-9.869 22,-22 0,-3.39 -0.797,-6.75 -2.31,-9.789 15.994,-27.479 18.688,-48.68 8.007,-63.023 -7.004,-9.405 -18.667,-14.174 -34.665,-14.174 -17.733,0 -41.544,6.159 -68.947,17.825 -0.971,-2.368 -1.942,-4.635 -2.902,-6.76 C 244.777,21.354 220.399,0 193.64,0 c -26.759,0 -51.137,21.354 -68.643,60.127 -0.959,2.124 -1.933,4.391 -2.902,6.759 C 116.608,64.551 111.216,62.414 106.028,60.52 103.761,50.551 94.931,43.433 84.6,43.433 c -6.082,0 -11.854,2.511 -16.012,6.929 -5.57,-0.863 -10.761,-1.301 -15.441,-1.301 -15.998,0 -27.661,4.769 -34.665,14.174 -13.319,17.885 -5.506,47.233 22.598,84.872 10.912,14.616 24.446,29.941 40.242,45.573 -15.795,15.629 -29.329,30.957 -40.242,45.572 -28.103,37.639 -35.917,66.987 -22.598,84.872 7.003,9.404 18.665,14.173 34.671,14.175 17.733,0 41.54,-6.16 68.942,-17.824 0.97,2.367 1.943,4.635 2.902,6.759 17.506,38.772 41.883,60.127 68.643,60.127 26.761,0 51.138,-21.354 68.645,-60.127 0.957,-2.122 1.932,-4.39 2.901,-6.761 27.403,11.666 51.213,17.826 68.947,17.826 15.998,0 27.661,-4.77 34.665,-14.175 13.319,-17.885 5.505,-47.233 -22.598,-84.873 -10.912,-14.614 -24.446,-29.94 -40.24,-45.571 z m -43.498,38.987 c -2.024,20.117 -5.592,39.011 -10.62,56.263 -11.993,-6.028 -24.419,-12.938 -37.008,-20.582 7.596,-5.205 15.14,-10.594 22.462,-16.047 8.566,-6.381 17.014,-12.971 25.166,-19.634 z m -112.476,19.632 c 7.329,5.459 14.874,10.851 22.463,16.049 -12.594,7.646 -25.021,14.558 -37.009,20.584 -5.029,-17.252 -8.595,-36.146 -10.621,-56.266 8.155,6.666 16.604,13.256 25.167,19.633 z m -25.167,-97.606 c 2.025,-20.118 5.592,-39.012 10.62,-56.263 11.99,6.028 24.417,12.939 37.009,20.582 -7.595,5.205 -15.139,10.595 -22.463,16.049 -8.567,6.378 -17.013,12.969 -25.166,19.632 z M 237.296,135.06 c -7.316,-5.45 -14.86,-10.84 -22.462,-16.049 12.593,-7.644 25.021,-14.554 37.008,-20.581 5.028,17.251 8.596,36.145 10.62,56.262 -8.155,-6.665 -16.603,-13.255 -25.166,-19.632 z M 193.64,364.359 c -16.934,0 -34.312,-16.98 -47.681,-46.591 -0.986,-2.188 -1.978,-4.506 -2.953,-6.918 16.335,-8.057 33.354,-17.655 50.635,-28.56 17.279,10.903 34.299,20.503 50.634,28.56 -0.976,2.408 -1.966,4.729 -2.953,6.918 -13.37,29.611 -30.748,46.591 -47.682,46.591 z m 0.001,-109.464 c -10.062,-6.67 -20.121,-13.745 -29.919,-21.043 -14.24,-10.604 -27.951,-21.657 -40.766,-32.864 -0.046,-2.496 -0.069,-4.95 -0.069,-7.307 0,-2.357 0.023,-4.811 0.069,-7.307 12.816,-11.209 26.527,-22.263 40.766,-32.866 9.791,-7.292 19.852,-14.367 29.918,-21.041 10.073,6.679 20.134,13.753 29.919,21.041 14.24,10.606 27.95,21.659 40.766,32.866 0.046,2.497 0.068,4.951 0.068,7.308 0,2.357 -0.022,4.811 -0.068,7.308 -12.814,11.207 -26.524,22.261 -40.768,32.865 -9.786,7.288 -19.846,14.364 -29.916,21.04 z M 193.64,23 c 16.935,0 34.313,16.982 47.682,46.592 0.988,2.191 1.979,4.512 2.954,6.918 -16.337,8.057 -33.355,17.656 -50.636,28.558 C 176.362,94.165 159.342,84.566 143.006,76.509 143.981,74.1 144.971,71.78 145.959,69.591 159.328,39.982 176.706,23 193.64,23 Z m 156.713,287.387 c -2.359,3.168 -8.119,4.912 -16.22,4.912 -15.112,0 -36.266,-5.703 -61.251,-16.507 7.92,-25.972 12.794,-56.062 14.124,-87.206 0.763,-0.688 1.521,-1.375 2.273,-2.063 15.17,14.969 28.113,29.594 38.49,43.491 25.812,34.566 26.34,52.328 22.584,57.373 z m -9.252,-196.338 c -12.132,0 -22,9.869 -22,22 0,2.632 0.464,5.203 1.38,7.658 -8.953,11.057 -19.438,22.527 -31.199,34.134 -0.754,-0.689 -1.513,-1.377 -2.273,-2.066 -1.33,-31.148 -6.205,-61.237 -14.124,-87.205 24.985,-10.803 46.139,-16.507 61.251,-16.507 8.101,0 13.859,1.744 16.22,4.912 3.2,4.299 2.689,16.562 -9.082,37.076 -0.06,-0.002 -0.117,-0.002 -0.173,-0.002 z M 36.929,76.973 c 2.359,-3.167 8.119,-4.912 16.219,-4.912 3.223,0 6.838,0.278 10.763,0.827 3.113,8.626 11.441,14.545 20.69,14.545 5.186,0 10.151,-1.821 14.116,-5.151 5.111,1.884 10.373,3.993 15.682,6.287 -7.92,25.97 -12.795,56.059 -14.125,87.207 -0.761,0.688 -1.519,1.376 -2.273,2.065 C 82.83,162.871 69.887,148.246 59.51,134.348 33.7,99.779 33.172,82.018 36.929,76.973 Z m 61.07,132.547 c 0.755,0.688 1.513,1.378 2.273,2.064 1.33,31.146 6.205,61.236 14.125,87.208 -24.982,10.804 -46.133,16.507 -61.25,16.507 -8.102,0 -13.861,-1.746 -16.22,-4.912 -3.757,-5.045 -3.229,-22.806 22.581,-57.373 10.38,-13.9 23.322,-28.525 38.491,-43.494 z"
   id="path57" />

			<path
   d="m 193.64,158.68 c -19.299,0 -35,15.701 -35,35 0,19.297 15.701,35 35,35 19.3,0 35.001,-15.701 35.001,-35 0,-19.299 -15.702,-35 -35.001,-35 z"
   id="path59" />

		</g>

	</g>

</g>
    <g
       id="g67">
</g>
    <g
       id="g69">
</g>
    <g
       id="g71">
</g>
    <g
       id="g73">
</g>
    <g
       id="g75">
</g>
    <g
       id="g77">
</g>
    <g
       id="g79">
</g>
    <g
       id="g81">
</g>
    <g
       id="g83">
</g>
    <g
       id="g85">
</g>
    <g
       id="g87">
</g>
    <g
       id="g89">
</g>
    <g
       id="g91">
</g>
    <g
       id="g93">
</g>
    <g
       id="g95">
</g>
  </g>
</svg>
