<?xml version="1.0" encoding="UTF-8" standalone="no"?>
<!-- Created with Inkscape (http://www.inkscape.org/) -->

<svg
   width="512"
   height="512"
   viewBox="0 0 135.46666 135.46667"
   version="1.1"
   id="svg5"
   xml:space="preserve"
   inkscape:version="1.2 (dc2aedaf03, 2022-05-15)"
   sodipodi:docname="hbar.svg"
   xmlns:inkscape="http://www.inkscape.org/namespaces/inkscape"
   xmlns:sodipodi="http://sodipodi.sourceforge.net/DTD/sodipodi-0.dtd"
   xmlns="http://www.w3.org/2000/svg"
   xmlns:svg="http://www.w3.org/2000/svg"><sodipodi:namedview
     id="namedview7"
     pagecolor="#ffffff"
     bordercolor="#666666"
     borderopacity="1.0"
     inkscape:showpageshadow="2"
     inkscape:pageopacity="0"
     inkscape:pagecheckerboard="0"
     inkscape:deskcolor="#d1d1d1"
     inkscape:document-units="mm"
     showgrid="false"
     inkscape:zoom="0.46057099"
     inkscape:cx="81.420673"
     inkscape:cy="386.4768"
     inkscape:window-width="1366"
     inkscape:window-height="697"
     inkscape:window-x="-8"
     inkscape:window-y="-8"
     inkscape:window-maximized="1"
     inkscape:current-layer="layer1" /><defs
     id="defs2"><inkscape:perspective
       sodipodi:type="inkscape:persp3d"
       inkscape:vp_x="0 : 526.18109 : 1"
       inkscape:vp_y="0 : 1000 : 0"
       inkscape:vp_z="744.09448 : 526.18109 : 1"
       inkscape:persp3d-origin="372.04724 : 350.78739 : 1"
       id="perspective2941" /><inkscape:perspective
       id="perspective2950"
       inkscape:persp3d-origin="372.04724 : 350.78739 : 1"
       inkscape:vp_z="744.09448 : 526.18109 : 1"
       inkscape:vp_y="0 : 1000 : 0"
       inkscape:vp_x="0 : 526.18109 : 1"
       sodipodi:type="inkscape:persp3d" /></defs><g
     inkscape:label="Layer 1"
     inkscape:groupmode="layer"
     id="layer1"><circle
       style="fill:#ffffff;stroke:#ffffff;stroke-width:0.789126;stroke-dasharray:none"
       id="path61"
       cx="67.73333"
       cy="67.73333"
       r="67.338768" /><circle
       style="fill:#000000;stroke:#ffffff;stroke-width:0.77063;stroke-dasharray:none"
       id="circle951"
       cx="67.73333"
       cy="67.73333"
       r="65.760521" /><path
       style="font-style:normal;font-variant:normal;font-weight:normal;font-stretch:normal;font-size:32.6182px;line-height:100%;font-family:'Arial Unicode MS';-inkscape-font-specification:'Arial Unicode MS';text-align:start;writing-mode:lr-tb;text-anchor:start;fill:#ffffff;fill-opacity:1;stroke:none;stroke-width:0.502987px;stroke-linecap:butt;stroke-linejoin:miter;stroke-opacity:1"
       d="m 99.004829,102.03111 c -2.690068,4.40611 -5.855473,8.17443 -9.496244,11.30507 -3.640865,3.13063 -6.829459,4.69592 -9.565787,4.69592 -1.762465,0 -3.20026,-0.56815 -4.31333,-1.70441 -1.113151,-1.13631 -1.669692,-2.56248 -1.669643,-4.27856 -4.9e-5,-2.17984 2.133407,-10.59775 6.400382,-25.253723 3.710319,-12.707991 5.565517,-19.920054 5.565563,-21.636127 -4.6e-5,-2.365304 -1.113158,-3.548005 -3.33934,-3.548044 -1.669727,3.9e-5 -3.803175,1.043569 -6.400382,3.13063 -2.597332,2.087102 -5.507639,5.171346 -8.731004,9.252729 -3.22341,4.081467 -6.400432,8.812161 -9.531016,14.192166 -3.130634,5.38009 -5.438051,10.435473 -6.922139,15.166169 l -4.174205,12.93994 H 36.461837 L 55.80216,48.740839 43.836221,53.332453 43.001354,50.480105 56.845687,45.192795 c 3.200164,-10.945523 4.800277,-16.928503 4.800322,-17.94892 -4.5e-5,-2.55077 -1.994376,-3.826242 -5.982976,-3.826331 -0.973991,8.9e-5 -2.388592,0.1856 -4.243738,0.556579 v -2.71322 l 22.679652,-3.826332 h 1.391399 l -6.817841,23.027532 18.366382,-6.956962 0.834818,2.852341 -20.244722,7.861365 -11.478996,39.306763 0.278287,0.278289 c 7.977297,-12.012295 14.400872,-20.093947 19.270782,-24.244993 4.869815,-4.150925 9.322267,-6.226412 13.357343,-6.226453 2.318919,4.1e-5 4.220464,0.811716 5.704689,2.434933 1.484094,1.623347 2.226177,3.617668 2.226224,5.982971 -4.7e-5,2.319044 -0.255141,4.591659 -0.765246,6.817797 -0.510276,2.226264 -1.832093,6.910616 -3.965493,14.053045 -4.916297,16.603952 -7.374422,25.068251 -7.374377,25.392891 -4.5e-5,1.43779 0.626079,2.15669 1.878396,2.15669 2.087017,0 5.40316,-3.13064 9.948431,-9.39191 z"
       id="text3031" /></g></svg>
